<?xml version="1.0" encoding="UTF-8" standalone="no"?>
<!DOCTYPE svg PUBLIC "-//W3C//DTD SVG 1.1//EN"
 "http://www.w3.org/Graphics/SVG/1.1/DTD/svg11.dtd">
<!-- Generated by graphviz version 3.0.0 (20220226.1711)
 -->
<!-- Pages: 1 -->
<svg width="512pt" height="190pt"
 viewBox="0.00 0.00 512.00 190.00" xmlns="http://www.w3.org/2000/svg" xmlns:xlink="http://www.w3.org/1999/xlink">
<g id="graph0" class="graph" transform="scale(1 1) rotate(0) translate(4 186)">
<polygon fill="white" stroke="transparent" points="-4,4 -4,-186 508,-186 508,4 -4,4"/>
<text text-anchor="middle" x="252" y="-6.6" font-family="Times New Roman,serif" font-size="8.00">PhpDependencyAnalysis by Marco Muths </text>
<!-- Test\\A -->
<g id="node1" class="node">
<title>Test\\A</title>
<path fill="#9999cc" stroke="black" d="M329,-117C329,-117 299,-117 299,-117 293,-117 287,-111 287,-105 287,-105 287,-93 287,-93 287,-87 293,-81 299,-81 299,-81 329,-81 329,-81 335,-81 341,-87 341,-93 341,-93 341,-105 341,-105 341,-111 335,-117 329,-117"/>
<text text-anchor="middle" x="314" y="-96.5" font-family="Times New Roman,serif" font-size="10.00" fill="#000033">Test\A</text>
</g>
<!-- Test\\TestInterface -->
<g id="node2" class="node">
<title>Test\\TestInterface</title>
<path fill="#9999cc" stroke="black" d="M492,-139C492,-139 425,-139 425,-139 419,-139 413,-133 413,-127 413,-127 413,-115 413,-115 413,-109 419,-103 425,-103 425,-103 492,-103 492,-103 498,-103 504,-109 504,-115 504,-115 504,-127 504,-127 504,-133 498,-139 492,-139"/>
<text text-anchor="middle" x="458.5" y="-118.5" font-family="Times New Roman,serif" font-size="10.00" fill="#000033">Test\TestInterface</text>
</g>
<!-- Test\\A&#45;&gt;Test\\TestInterface -->
<g id="edge1" class="edge">
<title>Test\\A&#45;&gt;Test\\TestInterface</title>
<path fill="none" stroke="#999999" d="M341.14,-103.04C359.42,-105.86 384.45,-109.72 406.6,-113.14"/>
<polygon fill="#999999" stroke="#999999" points="406.52,-115.25 412.77,-114.09 407.16,-111.1 406.52,-115.25"/>
</g>
<!-- Test\\TestTrait -->
<g id="node3" class="node">
<title>Test\\TestTrait</title>
<path fill="#9999cc" stroke="black" d="M483.5,-96C483.5,-96 433.5,-96 433.5,-96 427.5,-96 421.5,-90 421.5,-84 421.5,-84 421.5,-72 421.5,-72 421.5,-66 427.5,-60 433.5,-60 433.5,-60 483.5,-60 483.5,-60 489.5,-60 495.5,-66 495.5,-72 495.5,-72 495.5,-84 495.5,-84 495.5,-90 489.5,-96 483.5,-96"/>
<text text-anchor="middle" x="458.5" y="-75.5" font-family="Times New Roman,serif" font-size="10.00" fill="#000033">Test\TestTrait</text>
</g>
<!-- Test\\A&#45;&gt;Test\\TestTrait -->
<g id="edge2" class="edge">
<title>Test\\A&#45;&gt;Test\\TestTrait</title>
<path fill="none" stroke="#999999" d="M341.14,-95.15C361.88,-92.09 391.28,-87.76 415.34,-84.21"/>
<polygon fill="#999999" stroke="#999999" points="415.7,-86.28 421.33,-83.33 415.09,-82.13 415.7,-86.28"/>
</g>
<!-- Test\\Aggregation -->
<g id="node4" class="node">
<title>Test\\Aggregation</title>
<path fill="#9999cc" stroke="black" d="M77,-182C77,-182 12,-182 12,-182 6,-182 0,-176 0,-170 0,-170 0,-158 0,-158 0,-152 6,-146 12,-146 12,-146 77,-146 77,-146 83,-146 89,-152 89,-158 89,-158 89,-170 89,-170 89,-176 83,-182 77,-182"/>
<text text-anchor="middle" x="44.5" y="-161.5" font-family="Times New Roman,serif" font-size="10.00" fill="#000033">Test\Aggregation</text>
</g>
<!-- Test\\B -->
<g id="node5" class="node">
<title>Test\\B</title>
<path fill="#9999cc" stroke="black" d="M203,-117C203,-117 173,-117 173,-117 167,-117 161,-111 161,-105 161,-105 161,-93 161,-93 161,-87 167,-81 173,-81 173,-81 203,-81 203,-81 209,-81 215,-87 215,-93 215,-93 215,-105 215,-105 215,-111 209,-117 203,-117"/>
<text text-anchor="middle" x="188" y="-96.5" font-family="Times New Roman,serif" font-size="10.00" fill="#000033">Test\B</text>
</g>
<!-- Test\\Aggregation&#45;&gt;Test\\B -->
<g id="edge3" class="edge">
<title>Test\\Aggregation&#45;&gt;Test\\B</title>
<path fill="none" stroke="#999999" d="M84.92,-145.89C107.04,-135.73 134.29,-123.21 155.07,-113.67"/>
<polygon fill="#999999" stroke="#999999" points="156.17,-115.47 160.75,-111.06 154.42,-111.66 156.17,-115.47"/>
</g>
<!-- Test\\B&#45;&gt;Test\\A -->
<g id="edge5" class="edge">
<title>Test\\B&#45;&gt;Test\\A</title>
<path fill="none" stroke="#999999" d="M215.3,-99C234.37,-99 260.27,-99 280.62,-99"/>
<polygon fill="#999999" stroke="#999999" points="280.74,-101.1 286.74,-99 280.74,-96.9 280.74,-101.1"/>
</g>
<!-- Test\\Ass -->
<g id="node6" class="node">
<title>Test\\Ass</title>
<path fill="#9999cc" stroke="black" d="M59.5,-139C59.5,-139 29.5,-139 29.5,-139 23.5,-139 17.5,-133 17.5,-127 17.5,-127 17.5,-115 17.5,-115 17.5,-109 23.5,-103 29.5,-103 29.5,-103 59.5,-103 59.5,-103 65.5,-103 71.5,-109 71.5,-115 71.5,-115 71.5,-127 71.5,-127 71.5,-133 65.5,-139 59.5,-139"/>
<text text-anchor="middle" x="44.5" y="-118.5" font-family="Times New Roman,serif" font-size="10.00" fill="#000033">Test\Ass</text>
</g>
<!-- Test\\Ass&#45;&gt;Test\\B -->
<g id="edge4" class="edge">
<title>Test\\Ass&#45;&gt;Test\\B</title>
<path fill="none" stroke="#999999" d="M71.78,-116.91C95.21,-113.27 129.59,-107.93 154.69,-104.02"/>
<polygon fill="#999999" stroke="#999999" points="155.25,-106.06 160.86,-103.06 154.61,-101.91 155.25,-106.06"/>
</g>
<!-- Test\\Composition -->
<g id="node7" class="node">
<title>Test\\Composition</title>
<path fill="#9999cc" stroke="black" d="M77,-96C77,-96 12,-96 12,-96 6,-96 0,-90 0,-84 0,-84 0,-72 0,-72 0,-66 6,-60 12,-60 12,-60 77,-60 77,-60 83,-60 89,-66 89,-72 89,-72 89,-84 89,-84 89,-90 83,-96 77,-96"/>
<text text-anchor="middle" x="44.5" y="-75.5" font-family="Times New Roman,serif" font-size="10.00" fill="#000033">Test\Composition</text>
</g>
<!-- Test\\Composition&#45;&gt;Test\\B -->
<g id="edge6" class="edge">
<title>Test\\Composition&#45;&gt;Test\\B</title>
<path fill="none" stroke="#999999" d="M89.11,-84.47C110.21,-87.6 135.11,-91.3 154.52,-94.18"/>
<polygon fill="#999999" stroke="#999999" points="154.37,-96.28 160.61,-95.08 154.99,-92.13 154.37,-96.28"/>
</g>
<!-- Test\\DepInj -->
<g id="node8" class="node">
<title>Test\\DepInj</title>
<path fill="#9999cc" stroke="black" d="M65,-53C65,-53 24,-53 24,-53 18,-53 12,-47 12,-41 12,-41 12,-29 12,-29 12,-23 18,-17 24,-17 24,-17 65,-17 65,-17 71,-17 77,-23 77,-29 77,-29 77,-41 77,-41 77,-47 71,-53 65,-53"/>
<text text-anchor="middle" x="44.5" y="-32.5" font-family="Times New Roman,serif" font-size="10.00" fill="#000033">Test\DepInj</text>
</g>
<!-- Test\\DepInj&#45;&gt;Test\\B -->
<g id="edge8" class="edge">
<title>Test\\DepInj&#45;&gt;Test\\B</title>
<path fill="none" stroke="#999999" d="M77.26,-49.36C100.39,-59.83 131.62,-73.95 154.85,-84.46"/>
<polygon fill="#999999" stroke="#999999" points="154.24,-86.49 160.57,-87.05 155.97,-82.66 154.24,-86.49"/>
</g>
<!-- Test\\Foo -->
<g id="node9" class="node">
<title>Test\\Foo</title>
<path fill="#9999cc" stroke="black" d="M203,-53C203,-53 173,-53 173,-53 167,-53 161,-47 161,-41 161,-41 161,-29 161,-29 161,-23 167,-17 173,-17 173,-17 203,-17 203,-17 209,-17 215,-23 215,-29 215,-29 215,-41 215,-41 215,-47 209,-53 203,-53"/>
<text text-anchor="middle" x="188" y="-32.5" font-family="Times New Roman,serif" font-size="10.00" fill="#000033">Test\Foo</text>
</g>
<!-- Test\\DepInj&#45;&gt;Test\\Foo -->
<g id="edge7" class="edge">
<title>Test\\DepInj&#45;&gt;Test\\Foo</title>
<path fill="none" stroke="#999999" d="M77.26,-35C100.29,-35 131.35,-35 154.55,-35"/>
<polygon fill="#999999" stroke="#999999" points="154.57,-37.1 160.57,-35 154.57,-32.9 154.57,-37.1"/>
</g>
</g>
</svg>
